<?xml version="1.0" standalone="no"?>
<!DOCTYPE svg PUBLIC "-//W3C//DTD SVG 20010904//EN"
 "http://www.w3.org/TR/2001/REC-SVG-20010904/DTD/svg10.dtd">
<svg version="1.0" xmlns="http://www.w3.org/2000/svg"
 width="380.000000pt" height="429.000000pt" viewBox="0 0 380.000000 429.000000"
 preserveAspectRatio="xMidYMid meet">

<g transform="translate(0.000000,429.000000) scale(0.100000,-0.100000)"
fill="#000000" stroke="none">
<path d="M1831 1050 c-107 -23 -204 -97 -250 -193 -38 -78 -50 -137 -28 -137
8 0 22 -2 30 -6 10 -4 16 6 21 37 23 146 175 261 324 246 110 -12 200 -77 248
-182 23 -49 31 -140 14 -150 -5 -3 -6 4 -3 15 7 28 -12 25 -73 -9 -60 -35
-105 -83 -141 -154 -23 -46 -26 -63 -27 -153 0 -90 3 -107 28 -157 35 -73 118
-149 194 -177 82 -31 206 -25 284 13 94 46 174 154 193 260 l7 37 54 0 c85 0
158 33 230 104 77 76 104 141 104 251 0 110 -27 175 -104 251 -78 77 -144 104
-251 104 -99 0 -169 -27 -240 -91 -78 -72 -141 -216 -104 -240 26 -16 37 -9
44 28 19 104 115 211 213 239 110 32 226 2 306 -81 178 -183 62 -489 -195
-512 l-58 -6 -7 39 c-24 135 -149 266 -265 278 -19 2 -49 7 -66 11 -31 7 -33
6 -33 -20 0 -25 3 -27 29 -22 15 3 41 2 57 -4 28 -9 28 -9 -5 -4 l-34 5 7 -42
c17 -108 116 -230 217 -265 l51 -18 -6 -38 c-26 -159 -197 -277 -358 -247
-100 19 -201 105 -232 197 -26 76 -23 86 33 106 61 22 139 90 173 154 15 26
34 78 43 114 15 61 15 70 0 130 -44 172 -160 276 -325 292 -30 3 -75 2 -99 -3z
m369 -413 c0 -8 -14 -41 -31 -75 -32 -66 -92 -125 -145 -144 -22 -8 -36 -21
-43 -42 -10 -29 -10 -29 -6 -3 19 102 81 202 152 247 51 33 73 37 73 17z m264
-21 c56 -40 113 -115 122 -162 3 -18 13 -35 23 -37 9 -3 2 -5 -14 -6 -68 -2
-176 108 -206 211 -11 39 15 37 75 -6z m173 -292 c-3 -3 -12 -4 -19 -1 -8 3
-5 6 6 6 11 1 17 -2 13 -5z"/>
<path d="M993 1031 c-91 -33 -153 -90 -200 -181 -25 -50 -28 -65 -28 -155 0
-90 3 -106 28 -155 58 -113 165 -188 283 -198 60 -4 61 -4 66 22 5 25 3 26
-38 26 -103 0 -215 74 -264 175 -35 71 -35 189 0 260 70 144 235 210 383 155
207 -78 264 -344 107 -501 -25 -25 -63 -52 -83 -60 -31 -11 -37 -18 -37 -42 0
-25 3 -28 23 -22 75 23 174 113 207 188 35 81 43 148 25 223 -19 84 -50 137
-110 193 -67 62 -123 84 -225 88 -66 3 -97 -1 -137 -16z"/>
<path d="M1545 628 c10 -50 48 -129 80 -166 61 -72 184 -132 272 -132 41 0 43
2 43 29 0 27 -3 29 -52 35 -154 18 -225 78 -287 239 -8 20 -17 27 -37 27 -24
0 -25 -2 -19 -32z"/>
</g>
</svg>
